<?xml version="1.0" standalone="no"?>
<!DOCTYPE svg PUBLIC "-//W3C//DTD SVG 20010904//EN"
 "http://www.w3.org/TR/2001/REC-SVG-20010904/DTD/svg10.dtd">
<svg version="1.0" xmlns="http://www.w3.org/2000/svg"
 width="1280.000000pt" height="1280.000000pt" viewBox="0 0 1280.000000 1280.000000"
 preserveAspectRatio="xMidYMid meet">
<metadata>
Created by potrace 1.15, written by Peter Selinger 2001-2017
</metadata>
<g transform="translate(0.000000,1280.000000) scale(0.100000,-0.100000)"
fill="#000000" stroke="none">
<path d="M1217 11582 c-924 -924 -1047 -1051 -1047 -1077 0 -27 234 -264 2037
-2067 l2038 -2038 -2038 -2038 c-1803 -1803 -2037 -2040 -2037 -2067 0 -26
123 -153 1047 -1077 925 -925 1051 -1048 1078 -1048 27 0 263 233 2067 2037
l2038 2038 2038 -2038 c1804 -1804 2040 -2037 2067 -2037 27 0 153 123 1078
1048 924 924 1047 1051 1047 1077 0 27 -234 264 -2037 2067 l-2038 2038 2038
2038 c1804 1804 2037 2040 2037 2067 0 27 -123 153 -1048 1078 -924 924 -1051
1047 -1077 1047 -27 0 -264 -234 -2067 -2037 l-2038 -2038 -2038 2038 c-1804
1804 -2040 2037 -2067 2037 -27 0 -153 -123 -1078 -1048z"/>
</g>
</svg>
